<svg width="28" height="28" viewBox="0 0 28 28" fill="none" xmlns="http://www.w3.org/2000/svg">
<path d="M27.5172 13.1019H21.3428V11.9095C21.3425 11.7353 21.2484 11.5748 21.0966 11.4895L14.4828 7.77224V5.87983H15.791V6.59914C15.791 6.86574 16.0072 7.0819 16.2738 7.0819H20.2179C20.4845 7.08178 20.7006 6.86556 20.7005 6.59896C20.7005 6.54308 20.6907 6.48762 20.6717 6.435L20.2759 5.31017L20.6766 4.20949C20.7672 3.95875 20.6374 3.68201 20.3867 3.59137C20.3342 3.57236 20.2787 3.56265 20.2228 3.56259H18.4269V2.86259C18.4269 2.59598 18.2107 2.37983 17.9441 2.37983H14.4828V1.79086C14.4828 1.52426 14.2666 1.30811 14 1.30811C13.7334 1.30811 13.5172 1.52426 13.5172 1.79086V7.77224L6.90345 11.4847C6.75162 11.57 6.65754 11.7305 6.65724 11.9047V13.0971H0.482759C0.216155 13.0971 0 13.3132 0 13.5798V26.2088C0 26.4754 0.216155 26.6916 0.482759 26.6916H27.5172C27.7838 26.6916 28 26.4754 28 26.2088V13.5847C28 13.3181 27.7838 13.1019 27.5172 13.1019ZM18.4269 5.39707L18.4076 5.37776V4.54742H19.5083L19.3103 5.16535C19.2708 5.27288 19.2708 5.39092 19.3103 5.49845L19.5372 6.11638H16.7566V5.87983H17.9441C18.2107 5.87983 18.4269 5.66367 18.4269 5.39707ZM14.4828 3.34535H17.4614V4.06466V4.91431H14.4828V3.34535ZM6.65724 25.726H0.965517V14.0674H6.65724V25.726ZM13.5172 25.726H10.9828V20.2129H13.5172V25.726ZM17.0172 25.726H14.4828V20.2129H17.0172V25.726ZM20.3966 25.726H17.9828V19.7302C17.9828 19.4636 17.7666 19.2474 17.5 19.2474H10.5C10.2334 19.2474 10.0172 19.4636 10.0172 19.7302V25.726H7.60345V12.2088L14 8.60742L20.3772 12.1895L20.3966 13.5798V25.726ZM27.0345 25.726H21.3428V14.0674H27.0345V25.726Z" fill="#D10A10" fill-opacity="0.95"/>
<path d="M13.9993 10.085C12.8814 10.0876 11.9766 10.9946 11.9766 12.1125C11.9792 13.2297 12.887 14.1331 14.0041 14.1305C15.1213 14.1278 16.0247 13.2201 16.0221 12.1029C16.0194 10.9877 15.1146 10.085 13.9993 10.085ZM13.9993 13.165C13.4154 13.1623 12.9443 12.6868 12.9469 12.1029C12.9496 11.5228 13.4192 11.0531 13.9993 11.0505C14.584 11.0531 15.0566 11.5279 15.0566 12.1125H15.0614C15.0587 12.6964 14.5832 13.1676 13.9993 13.165Z" fill="#D10A10" fill-opacity="0.95"/>
<path d="M3.09442 15.1294H2.12891V17.0604H3.09442V15.1294Z" fill="#D10A10" fill-opacity="0.95"/>
<path d="M5.47431 15.1294H4.50879V17.0604H5.47431V15.1294Z" fill="#D10A10" fill-opacity="0.95"/>
<path d="M11.0023 15.1294H9.07129V16.0949H11.0023V15.1294Z" fill="#D10A10" fill-opacity="0.95"/>
<path d="M14.9652 15.1294H13.0342V16.0949H14.9652V15.1294Z" fill="#D10A10" fill-opacity="0.95"/>
<path d="M18.9291 15.1294H16.998V16.0949H18.9291V15.1294Z" fill="#D10A10" fill-opacity="0.95"/>
<path d="M11.0023 17.3794H9.07129V18.3449H11.0023V17.3794Z" fill="#D10A10" fill-opacity="0.95"/>
<path d="M14.9652 17.3794H13.0342V18.3449H14.9652V17.3794Z" fill="#D10A10" fill-opacity="0.95"/>
<path d="M18.9291 17.3794H16.998V18.3449H18.9291V17.3794Z" fill="#D10A10" fill-opacity="0.95"/>
<path d="M3.09442 18.9287H2.12891V20.8597H3.09442V18.9287Z" fill="#D10A10" fill-opacity="0.95"/>
<path d="M5.47431 18.9287H4.50879V20.8597H5.47431V18.9287Z" fill="#D10A10" fill-opacity="0.95"/>
<path d="M3.09442 22.7329H2.12891V24.6639H3.09442V22.7329Z" fill="#D10A10" fill-opacity="0.95"/>
<path d="M5.47431 22.7329H4.50879V24.6639H5.47431V22.7329Z" fill="#D10A10" fill-opacity="0.95"/>
<path d="M23.4909 15.1294H22.5254V17.0604H23.4909V15.1294Z" fill="#D10A10" fill-opacity="0.95"/>
<path d="M25.8708 15.1294H24.9053V17.0604H25.8708V15.1294Z" fill="#D10A10" fill-opacity="0.95"/>
<path d="M23.4909 18.9287H22.5254V20.8597H23.4909V18.9287Z" fill="#D10A10" fill-opacity="0.95"/>
<path d="M25.8708 18.9287H24.9053V20.8597H25.8708V18.9287Z" fill="#D10A10" fill-opacity="0.95"/>
<path d="M23.4909 22.7329H22.5254V24.6639H23.4909V22.7329Z" fill="#D10A10" fill-opacity="0.95"/>
<path d="M25.8708 22.7329H24.9053V24.6639H25.8708V22.7329Z" fill="#D10A10" fill-opacity="0.95"/>
</svg>
