<svg width="127" height="58" viewBox="0 0 127 58" fill="none" xmlns="http://www.w3.org/2000/svg">
<path fill-rule="evenodd" clip-rule="evenodd" d="M4.83254 58C3.69921 58 2.7773 57.6285 2.06638 56.8856C1.35546 56.1427 1 55.1491 1 53.9049V53.6427C1 52.8149 1.15841 52.0758 1.47522 51.4255C1.79203 50.7751 2.23512 50.2661 2.80426 49.8985C3.3734 49.5308 3.9904 49.347 4.65481 49.347C5.74164 49.347 6.58648 49.7044 7.1891 50.419C7.79172 51.1337 8.09325 52.1568 8.09325 53.4884V54.0823H2.42948C2.45015 54.9049 2.69102 55.5694 3.15186 56.0758C3.61292 56.5822 4.19892 56.8355 4.90984 56.8355C5.41449 56.8355 5.84208 56.7326 6.19237 56.527C6.54266 56.3213 6.84914 56.0488 7.1118 55.7095L7.98495 56.3882C7.28437 57.4627 6.23371 58 4.83254 58ZM4.65481 50.5193C4.07781 50.5193 3.5936 50.7288 3.20219 51.1478C2.81078 51.5668 2.56856 52.1542 2.47577 52.91H6.66377V52.8021C6.62243 52.0771 6.42672 51.5154 6.07643 51.117C5.72614 50.7185 5.25227 50.5193 4.65481 50.5193ZM8.21818 53.6041C8.21818 52.3239 8.52219 51.2944 9.12997 50.5154C9.73776 49.7365 10.5336 49.347 11.5175 49.347C12.4963 49.347 13.2715 49.6812 13.8433 50.3496V46H15.2726V57.8458H13.959L13.8896 56.9511C13.3178 57.6504 12.5219 58 11.502 58C10.5336 58 9.74428 57.6041 9.13379 56.8123C8.52331 56.0206 8.21818 54.9871 8.21818 53.7121V53.6041ZM9.64766 53.7661C9.64766 54.7121 9.84337 55.4524 10.2348 55.9871C10.6264 56.5218 11.1672 56.7892 11.8575 56.7892C12.7641 56.7892 13.4261 56.383 13.8433 55.5707V51.7378C13.4157 50.9512 12.7589 50.5578 11.873 50.5578C11.1724 50.5578 10.6264 50.8278 10.2348 51.3676C9.84337 51.9074 9.64766 52.7069 9.64766 53.7661ZM21.6771 57.0206C21.1208 57.6735 20.3045 58 19.2278 58C18.3367 58 17.6581 57.7416 17.1919 57.2249C16.7256 56.7082 16.4899 55.9434 16.4848 54.9306V49.5013H17.9142V54.892C17.9142 56.1568 18.4295 56.7892 19.4597 56.7892C20.5517 56.7892 21.2779 56.383 21.6385 55.5707V49.5013H23.068V57.8458H21.7081L21.6771 57.0206ZM27.8359 56.8355C28.3459 56.8355 28.7915 56.6812 29.1726 56.3727C29.5539 56.0643 29.7651 55.6787 29.8062 55.2159H31.1584C31.1326 55.6941 30.9679 56.1491 30.6639 56.581C30.3601 57.0128 29.9543 57.3573 29.4469 57.6144C28.9396 57.8715 28.4026 58 27.8359 58C26.6976 58 25.7923 57.6208 25.1201 56.8625C24.4478 56.1041 24.1117 55.0668 24.1117 53.7506V53.5116C24.1117 52.6992 24.2611 51.9769 24.5599 51.3445C24.8585 50.7121 25.2875 50.2211 25.8463 49.8715C26.4053 49.5218 27.0659 49.347 27.8283 49.347C28.7657 49.347 29.5449 49.6273 30.1655 50.1877C30.7863 50.7481 31.1173 51.4756 31.1584 52.3702H29.8062C29.7651 51.8303 29.5602 51.3869 29.1919 51.0399C28.8236 50.6928 28.3691 50.5193 27.8283 50.5193C27.1018 50.5193 26.5392 50.7802 26.1399 51.3021C25.7407 51.8239 25.5411 52.5784 25.5411 53.5655V53.8355C25.5411 54.7969 25.7395 55.5373 26.1361 56.0566C26.5327 56.5758 27.0994 56.8355 27.8359 56.8355ZM36.8494 57.8458C36.7669 57.6812 36.6999 57.3882 36.6485 56.9666C35.9841 57.6555 35.1907 58 34.2686 58C33.4444 58 32.7683 57.7673 32.2405 57.3021C31.7125 56.8367 31.4485 56.2468 31.4485 55.5321C31.4485 54.6632 31.7794 53.9884 32.4414 53.5077C33.1033 53.027 34.0342 52.7866 35.2345 52.7866H36.6253V52.1311C36.6253 51.6324 36.4759 51.2352 36.1771 50.9396C35.8785 50.644 35.4379 50.4961 34.8559 50.4961C34.3459 50.4961 33.9183 50.6247 33.5731 50.8817C33.228 51.1388 33.0555 51.4499 33.0555 51.8149H31.6183C31.6183 51.3985 31.7664 50.9961 32.0628 50.608C32.3589 50.2198 32.7607 49.9126 33.268 49.6864C33.7754 49.4602 34.333 49.347 34.9408 49.347C35.9041 49.347 36.6588 49.5874 37.2048 50.0681C37.7508 50.5488 38.0341 51.2108 38.0548 52.054V55.8946C38.0548 56.6607 38.1526 57.2699 38.3483 57.7224V57.8458H36.8494ZM34.4773 56.7583C34.9253 56.7583 35.3504 56.6427 35.7522 56.4113C36.1539 56.1799 36.4449 55.8792 36.6253 55.509V53.7969H35.5048C33.7536 53.7969 32.878 54.3085 32.878 55.3316C32.878 55.7789 33.0271 56.1285 33.326 56.3805C33.6248 56.6324 34.0086 56.7583 34.4773 56.7583ZM41.3178 47.4807V49.5013H42.8785V50.6041H41.3178V55.7789C41.3178 56.1131 41.3872 56.3637 41.5263 56.5309C41.6654 56.6979 41.9024 56.7815 42.2372 56.7815C42.4021 56.7815 42.6286 56.7506 42.9171 56.6889V57.8458C42.5412 57.9486 42.1754 58 41.82 58C41.1812 58 40.6996 57.8072 40.375 57.4216C40.0505 57.036 39.8883 56.4884 39.8883 55.7789V50.6041H38.3662V49.5013H39.8883V47.4807H41.3178ZM45.1948 57.8458H43.7656V49.5013H45.1948V57.8458ZM43.6496 47.2879C43.6496 47.0566 43.7204 46.8612 43.8619 46.7018C44.0037 46.5424 44.2136 46.4627 44.4918 46.4627C44.7699 46.4627 44.9811 46.5424 45.1254 46.7018C45.2696 46.8612 45.3418 47.0566 45.3418 47.2879C45.3418 47.5193 45.2696 47.7121 45.1254 47.8663C44.9811 48.0206 44.7699 48.0977 44.4918 48.0977C44.2136 48.0977 44.0037 48.0206 43.8619 47.8663C43.7204 47.7121 43.6496 47.5193 43.6496 47.2879ZM46.2093 53.5964C46.2093 52.7789 46.3702 52.0437 46.6921 51.3907C47.0141 50.7378 47.4622 50.2339 48.0365 49.8792C48.611 49.5244 49.2664 49.347 50.003 49.347C51.1415 49.347 52.0622 49.7404 52.7653 50.527C53.4684 51.3136 53.82 52.3599 53.82 53.6658V53.7661C53.82 54.5784 53.6641 55.3072 53.3524 55.9524C53.0408 56.5977 52.5952 57.1003 52.0157 57.4601C51.4363 57.82 50.7705 58 50.0185 58C48.8851 58 47.967 57.6067 47.264 56.82C46.5607 56.0334 46.2093 54.9923 46.2093 53.6967V53.5964ZM47.6464 53.7661C47.6464 54.6915 47.8614 55.4344 48.2915 55.9949C48.7218 56.5553 49.2972 56.8355 50.0185 56.8355C50.7447 56.8355 51.3217 56.5514 51.7492 55.9833C52.1768 55.4152 52.3905 54.6195 52.3905 53.5964C52.3905 52.6812 52.173 51.9396 51.7376 51.3715C51.3023 50.8033 50.7242 50.5193 50.003 50.5193C49.2972 50.5193 48.7281 50.7995 48.2953 51.3599C47.8628 51.9203 47.6464 52.7224 47.6464 53.7661ZM55.8757 49.5013L55.922 50.5501C56.5608 49.7481 57.3953 49.347 58.4255 49.347C60.1922 49.347 61.0833 50.3419 61.0988 52.3316V57.8458H59.6694V52.3239C59.6642 51.7224 59.5265 51.2776 59.2562 50.9897C58.9856 50.7018 58.5646 50.5578 57.9927 50.5578C57.5292 50.5578 57.1223 50.6812 56.772 50.928C56.4217 51.1748 56.1487 51.4987 55.953 51.8997V57.8458H54.5235V49.5013H55.8757ZM66.9138 57.8458H65.4844V49.5013H66.9138V57.8458ZM65.3684 47.2879C65.3684 47.0566 65.4394 46.8612 65.581 46.7018C65.7225 46.5424 65.9326 46.4627 66.2108 46.4627C66.4889 46.4627 66.7002 46.5424 66.8442 46.7018C66.9884 46.8612 67.0606 47.0566 67.0606 47.2879C67.0606 47.5193 66.9884 47.7121 66.8442 47.8663C66.7002 48.0206 66.4889 48.0977 66.2108 48.0977C65.9326 48.0977 65.7225 48.0206 65.581 47.8663C65.4394 47.7121 65.3684 47.5193 65.3684 47.2879ZM69.6589 49.5013L69.7052 50.5501C70.344 49.7481 71.1785 49.347 72.2087 49.347C73.9756 49.347 74.8668 50.3419 74.882 52.3316V57.8458H73.4528V52.3239C73.4476 51.7224 73.3096 51.2776 73.0393 50.9897C72.7688 50.7018 72.3477 50.5578 71.7759 50.5578C71.3124 50.5578 70.9055 50.6812 70.5552 50.928C70.2049 51.1748 69.9319 51.4987 69.7362 51.8997V57.8458H68.3067V49.5013H69.6589ZM87.6662 54.2828C87.5272 55.4704 87.0881 56.3869 86.3489 57.0321C85.6096 57.6774 84.6271 58 83.4012 58C82.0721 58 81.0071 57.5244 80.2061 56.5733C79.4053 55.6221 79.0047 54.3496 79.0047 52.7558V51.6761C79.0047 50.6324 79.1914 49.7146 79.5648 48.9229C79.9382 48.1311 80.4676 47.5231 81.1527 47.099C81.8378 46.6748 82.6312 46.4627 83.5326 46.4627C84.7275 46.4627 85.6856 46.7956 86.4069 47.4614C87.1279 48.1273 87.5478 49.0489 87.6662 50.2262H86.175C86.0462 49.3316 85.7667 48.6838 85.3366 48.2828C84.9066 47.8818 84.3051 47.6812 83.5326 47.6812C82.5846 47.6812 81.8416 48.0308 81.3035 48.7301C80.7651 49.4293 80.4959 50.4242 80.4959 51.7146V52.8021C80.4959 54.0206 80.7509 54.9897 81.2608 55.7095C81.7708 56.4293 82.4842 56.7892 83.4012 56.7892C84.2253 56.7892 84.8576 56.6028 85.298 56.2301C85.7384 55.8573 86.0307 55.2082 86.175 54.2828H87.6662ZM93.2981 57.8458C93.2159 57.6812 93.1489 57.3882 93.0972 56.9666C92.4328 57.6555 91.6394 58 90.7175 58C89.8934 58 89.2173 57.7673 88.6893 57.3021C88.1612 56.8367 87.8972 56.2468 87.8972 55.5321C87.8972 54.6632 88.2282 53.9884 88.8901 53.5077C89.5521 53.027 90.4832 52.7866 91.6833 52.7866H93.0741V52.1311C93.0741 51.6324 92.9247 51.2352 92.6261 50.9396C92.3272 50.644 91.8868 50.4961 91.3047 50.4961C90.7948 50.4961 90.3672 50.6247 90.0221 50.8817C89.677 51.1388 89.5044 51.4499 89.5044 51.8149H88.0673C88.0673 51.3985 88.2154 50.9961 88.5115 50.608C88.8077 50.2198 89.2094 49.9126 89.717 49.6864C90.2243 49.4602 90.7818 49.347 91.3898 49.347C92.3531 49.347 93.1076 49.5874 93.6536 50.0681C94.1996 50.5488 94.4829 51.2108 94.5036 52.054V55.8946C94.5036 56.6607 94.6013 57.2699 94.7972 57.7224V57.8458H93.2981ZM90.926 56.7583C91.3743 56.7583 91.7992 56.6427 92.2009 56.4113C92.6027 56.1799 92.8939 55.8792 93.0741 55.509V53.7969H91.9538C90.2023 53.7969 89.3267 54.3085 89.3267 55.3316C89.3267 55.7789 89.4761 56.1285 89.7747 56.3805C90.0736 56.6324 90.4573 56.7583 90.926 56.7583ZM97.1679 49.5013L97.2142 50.5501C97.853 49.7481 98.6875 49.347 99.7177 49.347C101.484 49.347 102.376 50.3419 102.391 52.3316V57.8458H100.962V52.3239C100.956 51.7224 100.819 51.2776 100.548 50.9897C100.278 50.7018 99.8568 50.5578 99.285 50.5578C98.8214 50.5578 98.4145 50.6812 98.0642 50.928C97.714 51.1748 97.4409 51.4987 97.2452 51.8997V57.8458H95.8158V49.5013H97.1679ZM108.906 57.8458C108.823 57.6812 108.756 57.3882 108.705 56.9666C108.04 57.6555 107.247 58 106.325 58C105.501 58 104.825 57.7673 104.297 57.3021C103.769 56.8367 103.505 56.2468 103.505 55.5321C103.505 54.6632 103.836 53.9884 104.498 53.5077C105.16 53.027 106.091 52.7866 107.291 52.7866H108.682V52.1311C108.682 51.6324 108.532 51.2352 108.234 50.9396C107.935 50.644 107.494 50.4961 106.912 50.4961C106.402 50.4961 105.975 50.6247 105.63 50.8817C105.285 51.1388 105.112 51.4499 105.112 51.8149H103.675C103.675 51.3985 103.823 50.9961 104.119 50.608C104.415 50.2198 104.817 49.9126 105.324 49.6864C105.832 49.4602 106.389 49.347 106.997 49.347C107.961 49.347 108.715 49.5874 109.261 50.0681C109.807 50.5488 110.091 51.2108 110.111 52.054V55.8946C110.111 56.6607 110.209 57.2699 110.405 57.7224V57.8458H108.906ZM106.534 56.7583C106.982 56.7583 107.407 56.6427 107.809 56.4113C108.21 56.1799 108.501 55.8792 108.682 55.509V53.7969H107.561C105.81 53.7969 104.934 54.3085 104.934 55.3316C104.934 55.7789 105.084 56.1285 105.382 56.3805C105.681 56.6324 106.065 56.7583 106.534 56.7583ZM111.076 53.6041C111.076 52.3239 111.38 51.2944 111.987 50.5154C112.595 49.7365 113.391 49.347 114.375 49.347C115.354 49.347 116.129 49.6812 116.701 50.3496V46H118.13V57.8458H116.816L116.747 56.9511C116.175 57.6504 115.379 58 114.359 58C113.391 58 112.602 57.6041 111.991 56.8123C111.381 56.0206 111.076 54.9871 111.076 53.7121V53.6041ZM112.505 53.7661C112.505 54.7121 112.701 55.4524 113.092 55.9871C113.484 56.5218 114.025 56.7892 114.715 56.7892C115.622 56.7892 116.283 56.383 116.701 55.5707V51.7378C116.273 50.9512 115.616 50.5578 114.73 50.5578C114.03 50.5578 113.484 50.8278 113.092 51.3676C112.701 51.9074 112.505 52.7069 112.505 53.7661ZM124.5 57.8458C124.418 57.6812 124.351 57.3882 124.299 56.9666C123.635 57.6555 122.842 58 121.919 58C121.095 58 120.419 57.7673 119.891 57.3021C119.363 56.8367 119.099 56.2468 119.099 55.5321C119.099 54.6632 119.43 53.9884 120.092 53.5077C120.754 53.027 121.685 52.7866 122.885 52.7866H124.276V52.1311C124.276 51.6324 124.127 51.2352 123.828 50.9396C123.529 50.644 123.089 50.4961 122.507 50.4961C121.997 50.4961 121.569 50.6247 121.224 50.8817C120.879 51.1388 120.707 51.4499 120.707 51.8149H119.269C119.269 51.3985 119.417 50.9961 119.714 50.608C120.01 50.2198 120.411 49.9126 120.919 49.6864C121.426 49.4602 121.984 49.347 122.592 49.347C123.555 49.347 124.31 49.5874 124.856 50.0681C125.402 50.5488 125.685 51.2108 125.706 52.054V55.8946C125.706 56.6607 125.805 57.2699 126 57.7224V57.8458H124.5ZM122.128 56.7583C122.576 56.7583 123.001 56.6427 123.403 56.4113C123.805 56.1799 124.096 55.8792 124.276 55.509V53.7969H123.156C121.404 53.7969 120.529 54.3085 120.529 55.3316C120.529 55.7789 120.678 56.1285 120.977 56.3805C121.276 56.6324 121.659 56.7583 122.128 56.7583Z" fill="#636466"/>
<path fill-rule="evenodd" clip-rule="evenodd" d="M8.49321 18.3615H8.57221C9.5585 15.7686 11.8855 14.0025 14.1724 14.0025C16.8544 14.0025 18.6287 15.3929 18.6287 17.9858C18.6287 19.4136 17.998 20.5038 16.4204 20.5038C15.3554 20.5038 14.2118 19.8646 14.2118 18.7751C14.2118 17.4221 15.1584 16.8207 16.5781 16.8207C16.3811 15.9565 15.1584 15.7686 14.2911 15.7686C10.5835 15.7686 8.65088 19.8646 8.65088 23.5848V28.6582C8.65088 29.8229 9.36118 30.3866 10.6232 30.3866H12.7528V32.153H1.15798V30.3866H3.72129C5.02292 30.3866 5.29892 29.8229 5.29892 28.6582V18.061C5.29892 16.8962 5.02292 16.3323 3.72129 16.3323H1V14.5661H8.49321V18.3615ZM33.2214 21.8184C33.2214 18.5495 31.6831 15.7688 28.0945 15.7688C24.4266 15.7688 22.7309 18.5495 22.7309 21.8184H33.2214ZM22.7309 23.5849C22.7309 27.4177 23.5983 30.9503 28.2522 30.9503C31.4071 30.9503 33.3398 29.3721 34.1681 26.4405H36.4554C35.5881 30.4993 32.8668 32.7165 28.2128 32.7165C22.3762 32.7165 18.9843 29.5225 18.9843 23.3595C18.9843 17.1966 22.3762 14.0023 28.2128 14.0023C34.5624 14.0023 36.6131 18.249 36.9681 23.5849H22.7309ZM41.1486 23.3595C41.1486 27.6434 42.7266 30.6123 46.3546 30.6123C50.8111 30.6123 52.4281 27.1175 52.4281 23.3595C52.4281 19.6016 50.8111 16.1071 46.7882 16.1071C42.7656 16.1071 41.1486 19.6016 41.1486 23.3595ZM52.5465 28.7706H52.4675C51.0478 31.2883 49.3912 32.7165 45.9209 32.7165C40.005 32.7165 37.402 27.9442 37.402 23.3595C37.402 18.7749 40.005 14.0023 45.9209 14.0023C48.4449 14.0023 51.1265 15.3552 52.4675 17.7228H52.5465V11.1463C52.5465 9.90638 52.0338 9.00443 50.7322 9.00443H48.6812V7.23828H55.8987V29.0337C55.8987 29.936 56.4507 30.3867 57.3577 30.3867H59.645V32.1531H52.5465V28.7706Z" fill="#202225"/>
<path fill-rule="evenodd" clip-rule="evenodd" d="M67.0202 28.6597C67.0202 29.8247 67.2968 30.3884 68.5975 30.3884H71.1218V32.1545H59.527V30.3884H62.0906C63.3919 30.3884 63.6679 29.8247 63.6679 28.6597V10.7345C63.6679 9.56978 62.7216 9.00614 62.0906 9.00614H59.527V7.23999H67.0202V28.6597ZM85.4379 21.82C85.4379 18.5511 83.8999 15.7704 80.311 15.7704C76.6434 15.7704 74.9474 18.5511 74.9474 21.82H85.4379ZM74.9474 23.5865C74.9474 27.4193 75.8154 30.9519 80.4686 30.9519C83.6236 30.9519 85.5562 29.3736 86.3845 26.4421H88.6718C87.8039 30.5009 85.0832 32.7181 80.4293 32.7181C74.5927 32.7181 71.2005 29.5241 71.2005 23.3611C71.2005 17.1982 74.5927 14.0039 80.4293 14.0039C86.7789 14.0039 88.8295 18.2506 89.1845 23.5865H74.9474ZM117.147 16.3339V28.6598C117.147 29.8246 118.133 30.3882 119.395 30.3882H121.367V32.1547H109.575V30.3882H112.217C113.519 30.3882 113.795 29.8246 113.795 28.6598V16.3339H109.575V14.5678H113.795V12.0124C113.795 7.99133 116.91 6.48828 119.907 6.48828C122.156 6.48828 125.705 7.23981 125.705 10.4341C125.705 11.8245 124.68 12.576 123.339 12.576C121.722 12.576 121.288 11.7118 121.288 10.7346C121.288 9.83269 122.038 9.34426 122.866 9.26905C122.274 8.47976 120.933 8.25443 120.026 8.25443C118.449 8.25443 117.147 9.60736 117.147 11.5614V14.5678H121.524V16.3339H117.147Z" fill="#202225"/>
<path fill-rule="evenodd" clip-rule="evenodd" d="M101.923 22.5711C100.228 23.5108 98.4134 23.8865 96.0864 24.826C93.9568 25.6898 93.0891 26.5169 93.0891 27.8324C93.0891 29.7861 94.1931 30.9511 96.2044 30.9511C98.8077 30.9511 101.923 28.621 101.923 26.0285V22.5711ZM105.276 28.9597C105.276 30.0869 105.591 30.9511 106.301 30.9511C107.997 30.9511 108.154 28.8467 108.154 27.7571V26.1786H110.008V27.2687C110.008 31.2514 108.588 32.7173 105.591 32.7173C103.619 32.7173 102.436 31.59 102.12 29.7861C100.188 31.8156 97.9794 32.7173 95.1401 32.7173C91.9455 32.7173 89.3422 31.3647 89.3422 28.0199C89.3422 23.135 96.4414 23.2099 100.425 21.406C101.647 20.8424 101.923 20.1286 101.923 19.0013C101.923 16.8591 100.937 15.7696 97.506 15.7696C95.9681 15.7696 94.0354 15.9949 92.8921 17.2349C94.0751 17.4227 94.7061 18.0242 94.7061 19.1514C94.7061 20.617 93.4438 21.1429 92.3398 21.1429C90.9592 21.1429 90.2891 19.9785 90.2891 18.4751C90.2891 15.2808 94.7851 14.0031 97.7824 14.0031C102.317 14.0031 105.276 15.2808 105.276 20.1664V28.9597ZM109.144 10.1479L108.434 9.70382C108.326 9.63333 108.312 9.52161 108.354 9.38817L110.182 6.43431L107.192 6.89473C107.012 6.89033 106.876 6.75248 106.848 6.43809L106.689 5.40364L103.564 7.65161C103.426 7.75987 103.259 7.80078 103.13 7.79732C102.874 7.79008 102.785 7.58646 102.906 7.20881L105.625 2.44151L103.461 3.30444C103.001 3.29217 102.968 3.3142 102.873 2.88556L102.145 0L99.4846 2.97746C99.2857 3.19618 99.129 3.2821 99.0003 3.27801C98.9238 3.2758 98.8105 3.22797 98.7476 3.18202L97.2508 2.29234L96.853 7.23147C96.7816 7.45397 96.5632 7.65003 96.3586 7.64405C96.2054 7.63996 96.0285 7.54618 95.8513 7.29504L94.2995 5.12733L93.3642 6.26815C93.158 6.5089 93.1187 6.55296 93.0158 6.55013L90.2699 6.00851L90.2659 8.51674C90.2737 9.02185 90.2004 9.17637 90.0377 9.22735L88.9545 9.62514L91.8259 12.3216C91.8259 12.3216 91.9813 12.4796 91.8347 12.6397C91.5835 12.9283 90.9932 13.3972 91.0369 13.4391C98.9691 10.8824 104.85 13.4718 105.445 13.7267C105.445 13.7267 104.309 12.8509 104.406 12.7965L109.144 10.1479Z" fill="#E60000"/>
<path fill-rule="evenodd" clip-rule="evenodd" d="M0.49781 41.2036L0.49781 40L126.498 40L126.498 41.2036L0.49781 41.2036Z" fill="#99999A"/>
</svg>
