<svg width="336" height="202" viewBox="0 0 336 202" fill="none" xmlns="http://www.w3.org/2000/svg">
<rect width="336" height="202" fill="#4D4D4F"/>
<path d="M197.165 82.3211C195.329 68.0614 182.952 57 168 57C156.425 57 146.37 63.6741 141.779 74.1929C132.758 76.8526 126 85.2543 126 94.2857C126 105.708 135.421 115 147 115H193.2C202.465 115 210 107.568 210 98.4286C209.994 94.715 208.726 91.1105 206.399 88.1909C204.073 85.2712 200.822 83.2046 197.165 82.3211V82.3211ZM172.2 94.2857V106.714H163.8V94.2857H151.2L168 73.5714L184.8 94.2857H172.2Z" fill="#C8C8C8"/>
<path d="M87.6074 139.268L90.5518 133.203H93.0127L88.7236 141.289V146H86.4912V141.289L82.1934 133.203H84.6631L87.6074 139.268ZM93.2148 141.157C93.2148 140.226 93.3994 139.388 93.7686 138.644C94.1377 137.894 94.6562 137.319 95.3242 136.921C95.9922 136.517 96.7598 136.314 97.627 136.314C98.9102 136.314 99.9502 136.728 100.747 137.554C101.55 138.38 101.983 139.476 102.048 140.841L102.057 141.342C102.057 142.279 101.875 143.117 101.512 143.855C101.154 144.594 100.639 145.165 99.9648 145.569C99.2969 145.974 98.5234 146.176 97.6445 146.176C96.3027 146.176 95.2275 145.73 94.4189 144.84C93.6162 143.943 93.2148 142.751 93.2148 141.263V141.157ZM95.3506 141.342C95.3506 142.32 95.5527 143.088 95.957 143.645C96.3613 144.195 96.9238 144.471 97.6445 144.471C98.3652 144.471 98.9248 144.189 99.3232 143.627C99.7275 143.064 99.9297 142.241 99.9297 141.157C99.9297 140.196 99.7217 139.435 99.3057 138.872C98.8955 138.31 98.3359 138.028 97.627 138.028C96.9297 138.028 96.376 138.307 95.9658 138.863C95.5557 139.414 95.3506 140.24 95.3506 141.342ZM109.624 145.068C108.997 145.807 108.106 146.176 106.952 146.176C105.921 146.176 105.139 145.874 104.605 145.271C104.078 144.667 103.814 143.794 103.814 142.651V136.49H105.95V142.625C105.95 143.832 106.451 144.436 107.453 144.436C108.49 144.436 109.19 144.063 109.554 143.319V136.49H111.689V146H109.677L109.624 145.068ZM120.452 137.527C121.149 136.719 122.031 136.314 123.098 136.314C125.125 136.314 126.153 137.472 126.183 139.786V146H124.047V139.865C124.047 139.209 123.903 138.746 123.616 138.477C123.335 138.201 122.919 138.063 122.368 138.063C121.513 138.063 120.874 138.444 120.452 139.206V146H118.316V132.5H120.452V137.527ZM134.031 146C133.938 145.818 133.855 145.522 133.785 145.112C133.105 145.821 132.273 146.176 131.289 146.176C130.334 146.176 129.555 145.903 128.951 145.358C128.348 144.813 128.046 144.14 128.046 143.337C128.046 142.323 128.421 141.547 129.171 141.008C129.927 140.463 131.005 140.19 132.405 140.19H133.715V139.566C133.715 139.074 133.577 138.682 133.302 138.389C133.026 138.09 132.607 137.94 132.045 137.94C131.559 137.94 131.16 138.063 130.85 138.31C130.539 138.55 130.384 138.857 130.384 139.232H128.248C128.248 138.711 128.421 138.225 128.767 137.773C129.112 137.316 129.581 136.959 130.173 136.701C130.771 136.443 131.436 136.314 132.168 136.314C133.281 136.314 134.169 136.596 134.831 137.158C135.493 137.715 135.833 138.5 135.851 139.514V143.803C135.851 144.658 135.971 145.341 136.211 145.851V146H134.031ZM131.685 144.462C132.106 144.462 132.502 144.359 132.871 144.154C133.246 143.949 133.527 143.674 133.715 143.328V141.535H132.563C131.772 141.535 131.178 141.673 130.779 141.948C130.381 142.224 130.182 142.613 130.182 143.117C130.182 143.527 130.316 143.855 130.586 144.102C130.861 144.342 131.228 144.462 131.685 144.462ZM141.3 143.293L143.312 136.49H145.519L142.223 146H140.368L137.046 136.49H139.261L141.3 143.293ZM150.924 146.176C149.57 146.176 148.472 145.751 147.628 144.901C146.79 144.046 146.371 142.909 146.371 141.491V141.228C146.371 140.278 146.553 139.432 146.916 138.688C147.285 137.938 147.801 137.354 148.463 136.938C149.125 136.522 149.863 136.314 150.678 136.314C151.973 136.314 152.972 136.728 153.675 137.554C154.384 138.38 154.738 139.549 154.738 141.061V141.922H148.524C148.589 142.707 148.85 143.328 149.307 143.785C149.77 144.242 150.35 144.471 151.047 144.471C152.025 144.471 152.822 144.075 153.438 143.284L154.589 144.383C154.208 144.951 153.698 145.394 153.06 145.71C152.427 146.021 151.715 146.176 150.924 146.176ZM150.669 138.028C150.083 138.028 149.608 138.233 149.245 138.644C148.888 139.054 148.659 139.625 148.56 140.357H152.629V140.199C152.582 139.484 152.392 138.945 152.058 138.582C151.724 138.213 151.261 138.028 150.669 138.028ZM158.386 136.49L158.447 137.589C159.15 136.739 160.073 136.314 161.216 136.314C163.196 136.314 164.204 137.448 164.239 139.716V146H162.104V139.839C162.104 139.235 161.972 138.79 161.708 138.503C161.45 138.21 161.025 138.063 160.434 138.063C159.572 138.063 158.931 138.453 158.509 139.232V146H156.373V136.49H158.386ZM166.973 133.599L166.744 137.035H165.347V132.5H166.973V133.599ZM171.438 134.179V136.49H173.116V138.072H171.438V143.381C171.438 143.744 171.508 144.008 171.648 144.172C171.795 144.33 172.053 144.409 172.422 144.409C172.668 144.409 172.917 144.38 173.169 144.321V145.974C172.683 146.108 172.214 146.176 171.763 146.176C170.122 146.176 169.302 145.271 169.302 143.46V138.072H167.737V136.49H169.302V134.179H171.438ZM184.999 145.068C184.372 145.807 183.481 146.176 182.327 146.176C181.296 146.176 180.514 145.874 179.98 145.271C179.453 144.667 179.189 143.794 179.189 142.651V136.49H181.325V142.625C181.325 143.832 181.826 144.436 182.828 144.436C183.865 144.436 184.565 144.063 184.929 143.319V136.49H187.064V146H185.052L184.999 145.068ZM197.567 141.342C197.567 142.812 197.233 143.987 196.565 144.866C195.897 145.739 195.001 146.176 193.876 146.176C192.833 146.176 191.998 145.833 191.371 145.147V149.656H189.235V136.49H191.204L191.292 137.457C191.919 136.695 192.771 136.314 193.85 136.314C195.01 136.314 195.918 136.748 196.574 137.615C197.236 138.477 197.567 139.675 197.567 141.21V141.342ZM195.44 141.157C195.44 140.208 195.25 139.455 194.869 138.898C194.494 138.342 193.955 138.063 193.252 138.063C192.379 138.063 191.752 138.424 191.371 139.145V143.363C191.758 144.102 192.391 144.471 193.27 144.471C193.949 144.471 194.479 144.198 194.86 143.653C195.247 143.103 195.44 142.271 195.44 141.157ZM201.654 146H199.519V132.5H201.654V146ZM203.588 141.157C203.588 140.226 203.772 139.388 204.142 138.644C204.511 137.894 205.029 137.319 205.697 136.921C206.365 136.517 207.133 136.314 208 136.314C209.283 136.314 210.323 136.728 211.12 137.554C211.923 138.38 212.356 139.476 212.421 140.841L212.43 141.342C212.43 142.279 212.248 143.117 211.885 143.855C211.527 144.594 211.012 145.165 210.338 145.569C209.67 145.974 208.896 146.176 208.018 146.176C206.676 146.176 205.601 145.73 204.792 144.84C203.989 143.943 203.588 142.751 203.588 141.263V141.157ZM205.724 141.342C205.724 142.32 205.926 143.088 206.33 143.645C206.734 144.195 207.297 144.471 208.018 144.471C208.738 144.471 209.298 144.189 209.696 143.627C210.101 143.064 210.303 142.241 210.303 141.157C210.303 140.196 210.095 139.435 209.679 138.872C209.269 138.31 208.709 138.028 208 138.028C207.303 138.028 206.749 138.307 206.339 138.863C205.929 139.414 205.724 140.24 205.724 141.342ZM219.918 146C219.824 145.818 219.742 145.522 219.672 145.112C218.992 145.821 218.16 146.176 217.176 146.176C216.221 146.176 215.441 145.903 214.838 145.358C214.234 144.813 213.933 144.14 213.933 143.337C213.933 142.323 214.308 141.547 215.058 141.008C215.813 140.463 216.892 140.19 218.292 140.19H219.602V139.566C219.602 139.074 219.464 138.682 219.188 138.389C218.913 138.09 218.494 137.94 217.932 137.94C217.445 137.94 217.047 138.063 216.736 138.31C216.426 138.55 216.271 138.857 216.271 139.232H214.135C214.135 138.711 214.308 138.225 214.653 137.773C214.999 137.316 215.468 136.959 216.06 136.701C216.657 136.443 217.322 136.314 218.055 136.314C219.168 136.314 220.056 136.596 220.718 137.158C221.38 137.715 221.72 138.5 221.737 139.514V143.803C221.737 144.658 221.857 145.341 222.098 145.851V146H219.918ZM217.571 144.462C217.993 144.462 218.389 144.359 218.758 144.154C219.133 143.949 219.414 143.674 219.602 143.328V141.535H218.45C217.659 141.535 217.064 141.673 216.666 141.948C216.268 142.224 216.068 142.613 216.068 143.117C216.068 143.527 216.203 143.855 216.473 144.102C216.748 144.342 217.114 144.462 217.571 144.462ZM223.574 141.175C223.574 139.71 223.914 138.535 224.594 137.65C225.273 136.76 226.185 136.314 227.327 136.314C228.335 136.314 229.149 136.666 229.771 137.369V132.5H231.906V146H229.973L229.867 145.016C229.229 145.789 228.376 146.176 227.31 146.176C226.196 146.176 225.294 145.728 224.603 144.831C223.917 143.935 223.574 142.716 223.574 141.175ZM225.71 141.359C225.71 142.326 225.895 143.082 226.264 143.627C226.639 144.166 227.169 144.436 227.854 144.436C228.728 144.436 229.366 144.046 229.771 143.267V139.206C229.378 138.444 228.745 138.063 227.872 138.063C227.181 138.063 226.647 138.339 226.272 138.89C225.897 139.435 225.71 140.258 225.71 141.359ZM238.322 146.176C236.969 146.176 235.87 145.751 235.026 144.901C234.188 144.046 233.77 142.909 233.77 141.491V141.228C233.77 140.278 233.951 139.432 234.314 138.688C234.684 137.938 235.199 137.354 235.861 136.938C236.523 136.522 237.262 136.314 238.076 136.314C239.371 136.314 240.37 136.728 241.073 137.554C241.782 138.38 242.137 139.549 242.137 141.061V141.922H235.923C235.987 142.707 236.248 143.328 236.705 143.785C237.168 144.242 237.748 144.471 238.445 144.471C239.424 144.471 240.221 144.075 240.836 143.284L241.987 144.383C241.606 144.951 241.097 145.394 240.458 145.71C239.825 146.021 239.113 146.176 238.322 146.176ZM238.067 138.028C237.481 138.028 237.007 138.233 236.644 138.644C236.286 139.054 236.058 139.625 235.958 140.357H240.027V140.199C239.98 139.484 239.79 138.945 239.456 138.582C239.122 138.213 238.659 138.028 238.067 138.028ZM243.402 141.175C243.402 139.71 243.742 138.535 244.422 137.65C245.102 136.76 246.013 136.314 247.155 136.314C248.163 136.314 248.978 136.666 249.599 137.369V132.5H251.734V146H249.801L249.695 145.016C249.057 145.789 248.204 146.176 247.138 146.176C246.024 146.176 245.122 145.728 244.431 144.831C243.745 143.935 243.402 142.716 243.402 141.175ZM245.538 141.359C245.538 142.326 245.723 143.082 246.092 143.627C246.467 144.166 246.997 144.436 247.683 144.436C248.556 144.436 249.194 144.046 249.599 143.267V139.206C249.206 138.444 248.573 138.063 247.7 138.063C247.009 138.063 246.476 138.339 246.101 138.89C245.726 139.435 245.538 140.258 245.538 141.359ZM129.584 167C129.49 166.818 129.408 166.522 129.338 166.112C128.658 166.821 127.826 167.176 126.842 167.176C125.887 167.176 125.107 166.903 124.504 166.358C123.9 165.813 123.599 165.14 123.599 164.337C123.599 163.323 123.974 162.547 124.724 162.008C125.479 161.463 126.558 161.19 127.958 161.19H129.268V160.566C129.268 160.074 129.13 159.682 128.854 159.389C128.579 159.09 128.16 158.94 127.598 158.94C127.111 158.94 126.713 159.063 126.402 159.31C126.092 159.55 125.937 159.857 125.937 160.232H123.801C123.801 159.711 123.974 159.225 124.319 158.773C124.665 158.316 125.134 157.959 125.726 157.701C126.323 157.443 126.988 157.314 127.721 157.314C128.834 157.314 129.722 157.596 130.384 158.158C131.046 158.715 131.386 159.5 131.403 160.514V164.803C131.403 165.658 131.523 166.341 131.764 166.851V167H129.584ZM127.237 165.462C127.659 165.462 128.055 165.359 128.424 165.154C128.799 164.949 129.08 164.674 129.268 164.328V162.535H128.116C127.325 162.535 126.73 162.673 126.332 162.948C125.934 163.224 125.734 163.613 125.734 164.117C125.734 164.527 125.869 164.855 126.139 165.102C126.414 165.342 126.78 165.462 127.237 165.462ZM146.45 162.342C146.45 163.812 146.116 164.987 145.448 165.866C144.78 166.739 143.884 167.176 142.759 167.176C141.716 167.176 140.881 166.833 140.254 166.147V170.656H138.118V157.49H140.087L140.175 158.457C140.802 157.695 141.654 157.314 142.732 157.314C143.893 157.314 144.801 157.748 145.457 158.615C146.119 159.477 146.45 160.675 146.45 162.21V162.342ZM144.323 162.157C144.323 161.208 144.133 160.455 143.752 159.898C143.377 159.342 142.838 159.063 142.135 159.063C141.262 159.063 140.635 159.424 140.254 160.145V164.363C140.641 165.102 141.273 165.471 142.152 165.471C142.832 165.471 143.362 165.198 143.743 164.653C144.13 164.103 144.323 163.271 144.323 162.157ZM150.37 158.527C151.067 157.719 151.949 157.314 153.016 157.314C155.043 157.314 156.071 158.472 156.101 160.786V167H153.965V160.865C153.965 160.209 153.821 159.746 153.534 159.477C153.253 159.201 152.837 159.063 152.286 159.063C151.431 159.063 150.792 159.444 150.37 160.206V167H148.234V153.5H150.37V158.527ZM157.867 162.157C157.867 161.226 158.052 160.388 158.421 159.644C158.79 158.894 159.309 158.319 159.977 157.921C160.645 157.517 161.412 157.314 162.279 157.314C163.562 157.314 164.603 157.728 165.399 158.554C166.202 159.38 166.636 160.476 166.7 161.841L166.709 162.342C166.709 163.279 166.527 164.117 166.164 164.855C165.807 165.594 165.291 166.165 164.617 166.569C163.949 166.974 163.176 167.176 162.297 167.176C160.955 167.176 159.88 166.73 159.071 165.84C158.269 164.943 157.867 163.751 157.867 162.263V162.157ZM160.003 162.342C160.003 163.32 160.205 164.088 160.609 164.645C161.014 165.195 161.576 165.471 162.297 165.471C163.018 165.471 163.577 165.189 163.976 164.627C164.38 164.064 164.582 163.241 164.582 162.157C164.582 161.196 164.374 160.435 163.958 159.872C163.548 159.31 162.988 159.028 162.279 159.028C161.582 159.028 161.028 159.307 160.618 159.863C160.208 160.414 160.003 161.24 160.003 162.342ZM171.191 155.179V157.49H172.87V159.072H171.191V164.381C171.191 164.744 171.262 165.008 171.402 165.172C171.549 165.33 171.807 165.409 172.176 165.409C172.422 165.409 172.671 165.38 172.923 165.321V166.974C172.437 167.108 171.968 167.176 171.517 167.176C169.876 167.176 169.056 166.271 169.056 164.46V159.072H167.491V157.49H169.056V155.179H171.191ZM173.846 162.157C173.846 161.226 174.03 160.388 174.399 159.644C174.769 158.894 175.287 158.319 175.955 157.921C176.623 157.517 177.391 157.314 178.258 157.314C179.541 157.314 180.581 157.728 181.378 158.554C182.181 159.38 182.614 160.476 182.679 161.841L182.688 162.342C182.688 163.279 182.506 164.117 182.143 164.855C181.785 165.594 181.27 166.165 180.596 166.569C179.928 166.974 179.154 167.176 178.275 167.176C176.934 167.176 175.858 166.73 175.05 165.84C174.247 164.943 173.846 163.751 173.846 162.263V162.157ZM175.981 162.342C175.981 163.32 176.184 164.088 176.588 164.645C176.992 165.195 177.555 165.471 178.275 165.471C178.996 165.471 179.556 165.189 179.954 164.627C180.358 164.064 180.561 163.241 180.561 162.157C180.561 161.196 180.353 160.435 179.937 159.872C179.526 159.31 178.967 159.028 178.258 159.028C177.561 159.028 177.007 159.307 176.597 159.863C176.187 160.414 175.981 161.24 175.981 162.342ZM192.303 163.941L194.236 157.49H196.513L192.733 168.441C192.153 170.041 191.169 170.841 189.78 170.841C189.47 170.841 189.127 170.788 188.752 170.683V169.03L189.156 169.057C189.695 169.057 190.1 168.957 190.369 168.758C190.645 168.564 190.861 168.236 191.02 167.773L191.327 166.956L187.987 157.49H190.29L192.303 163.941ZM201.812 167.176C200.459 167.176 199.36 166.751 198.517 165.901C197.679 165.046 197.26 163.909 197.26 162.491V162.228C197.26 161.278 197.441 160.432 197.805 159.688C198.174 158.938 198.689 158.354 199.352 157.938C200.014 157.522 200.752 157.314 201.566 157.314C202.861 157.314 203.86 157.728 204.563 158.554C205.272 159.38 205.627 160.549 205.627 162.061V162.922H199.413C199.478 163.707 199.738 164.328 200.195 164.785C200.658 165.242 201.238 165.471 201.936 165.471C202.914 165.471 203.711 165.075 204.326 164.284L205.478 165.383C205.097 165.951 204.587 166.394 203.948 166.71C203.315 167.021 202.604 167.176 201.812 167.176ZM201.558 159.028C200.972 159.028 200.497 159.233 200.134 159.644C199.776 160.054 199.548 160.625 199.448 161.357H203.518V161.199C203.471 160.484 203.28 159.945 202.946 159.582C202.612 159.213 202.149 159.028 201.558 159.028ZM209.969 155.179V157.49H211.647V159.072H209.969V164.381C209.969 164.744 210.039 165.008 210.18 165.172C210.326 165.33 210.584 165.409 210.953 165.409C211.199 165.409 211.448 165.38 211.7 165.321V166.974C211.214 167.108 210.745 167.176 210.294 167.176C208.653 167.176 207.833 166.271 207.833 164.46V159.072H206.269V157.49H207.833V155.179H209.969Z" fill="#C8C8C8"/>
<path d="M142.289 34.7734V39H140.312V27.625H144.664C145.935 27.625 146.943 27.9557 147.688 28.6172C148.438 29.2786 148.812 30.1536 148.812 31.2422C148.812 32.3568 148.445 33.224 147.711 33.8438C146.982 34.4635 145.958 34.7734 144.641 34.7734H142.289ZM142.289 33.1875H144.664C145.367 33.1875 145.904 33.0234 146.273 32.6953C146.643 32.362 146.828 31.8828 146.828 31.2578C146.828 30.6432 146.641 30.1536 146.266 29.7891C145.891 29.4193 145.375 29.2292 144.719 29.2188H142.289V33.1875ZM154.789 32.2812C154.539 32.2396 154.281 32.2188 154.016 32.2188C153.146 32.2188 152.56 32.5521 152.258 33.2188V39H150.359V30.5469H152.172L152.219 31.4922C152.677 30.7578 153.312 30.3906 154.125 30.3906C154.396 30.3906 154.62 30.4271 154.797 30.5L154.789 32.2812ZM159.555 39.1562C158.352 39.1562 157.375 38.7786 156.625 38.0234C155.88 37.263 155.508 36.2526 155.508 34.9922V34.7578C155.508 33.9141 155.669 33.1615 155.992 32.5C156.32 31.8333 156.779 31.3151 157.367 30.9453C157.956 30.5755 158.612 30.3906 159.336 30.3906C160.487 30.3906 161.375 30.7578 162 31.4922C162.63 32.2266 162.945 33.2656 162.945 34.6094V35.375H157.422C157.479 36.0729 157.711 36.625 158.117 37.0312C158.529 37.4375 159.044 37.6406 159.664 37.6406C160.534 37.6406 161.242 37.2891 161.789 36.5859L162.812 37.5625C162.474 38.0677 162.021 38.4609 161.453 38.7422C160.891 39.0182 160.258 39.1562 159.555 39.1562ZM159.328 31.9141C158.807 31.9141 158.385 32.0964 158.062 32.4609C157.745 32.8255 157.542 33.3333 157.453 33.9844H161.07V33.8438C161.029 33.2083 160.859 32.7292 160.562 32.4062C160.266 32.0781 159.854 31.9141 159.328 31.9141ZM167.297 36.5938L169.086 30.5469H171.047L168.117 39H166.469L163.516 30.5469H165.484L167.297 36.5938ZM174.258 39H172.359V30.5469H174.258V39ZM172.242 28.3516C172.242 28.0599 172.333 27.8177 172.516 27.625C172.703 27.4323 172.969 27.3359 173.312 27.3359C173.656 27.3359 173.922 27.4323 174.109 27.625C174.297 27.8177 174.391 28.0599 174.391 28.3516C174.391 28.638 174.297 28.8776 174.109 29.0703C173.922 29.2578 173.656 29.3516 173.312 29.3516C172.969 29.3516 172.703 29.2578 172.516 29.0703C172.333 28.8776 172.242 28.638 172.242 28.3516ZM180.055 39.1562C178.852 39.1562 177.875 38.7786 177.125 38.0234C176.38 37.263 176.008 36.2526 176.008 34.9922V34.7578C176.008 33.9141 176.169 33.1615 176.492 32.5C176.82 31.8333 177.279 31.3151 177.867 30.9453C178.456 30.5755 179.112 30.3906 179.836 30.3906C180.987 30.3906 181.875 30.7578 182.5 31.4922C183.13 32.2266 183.445 33.2656 183.445 34.6094V35.375H177.922C177.979 36.0729 178.211 36.625 178.617 37.0312C179.029 37.4375 179.544 37.6406 180.164 37.6406C181.034 37.6406 181.742 37.2891 182.289 36.5859L183.312 37.5625C182.974 38.0677 182.521 38.4609 181.953 38.7422C181.391 39.0182 180.758 39.1562 180.055 39.1562ZM179.828 31.9141C179.307 31.9141 178.885 32.0964 178.562 32.4609C178.245 32.8255 178.042 33.3333 177.953 33.9844H181.57V33.8438C181.529 33.2083 181.359 32.7292 181.062 32.4062C180.766 32.0781 180.354 31.9141 179.828 31.9141ZM192.352 36.3828L193.695 30.5469H195.547L193.242 39H191.68L189.867 33.1953L188.086 39H186.523L184.211 30.5469H186.062L187.43 36.3203L189.164 30.5469H190.594L192.352 36.3828Z" fill="#C8C8C8"/>
</svg>
