<svg width="173" height="173" viewBox="0 0 173 173" fill="none" xmlns="http://www.w3.org/2000/svg">
<path d="M172.701 86.3525C172.701 134.042 134.041 172.703 86.3507 172.703C38.66 172.703 0 134.042 0 86.3525C0 38.6618 38.66 0.00183321 86.3507 0.00183321C134.041 0.00183321 172.701 38.6618 172.701 86.3525" fill="#BCC3E5"/>
<path d="M119.94 75.3106C119.94 101.007 104.902 121.836 86.3498 121.836C67.7978 121.836 52.7578 101.007 52.7578 75.3106C52.7578 49.6159 67.7978 28.7853 86.3498 28.7853C104.902 28.7853 119.94 49.6159 119.94 75.3106" fill="white"/>
<path d="M85.8193 118.858C57.702 118.858 32.566 125.596 15.8486 136.182C31.4886 158.27 57.226 172.703 86.35 172.703C115.269 172.703 140.847 158.472 156.519 136.648C139.807 125.795 114.349 118.858 85.8193 118.858Z" fill="white"/>
<path d="M91.465 141.191H81.2357C74.177 141.191 68.4023 135.417 68.4023 128.358V99.1874C68.4023 92.1287 74.177 86.3541 81.2357 86.3541H91.465C98.5237 86.3541 104.298 92.1287 104.298 99.1874V128.358C104.298 135.417 98.5237 141.191 91.465 141.191Z" fill="white"/>
<path d="M58.0631 77.9551C59.0685 85.4151 57.4125 91.8818 54.3631 92.4004C51.3151 92.9191 48.0285 87.2924 47.0232 79.8338C46.0165 72.3751 47.6725 65.9071 50.7218 65.3885C53.7698 64.8698 57.0578 70.4965 58.0631 77.9551" fill="white"/>
<path d="M114.637 77.9551C113.631 85.4151 115.287 91.8818 118.335 92.4004C121.385 92.9191 124.671 87.2924 125.677 79.8338C126.682 72.3751 125.026 65.9071 121.978 65.3885C118.929 64.8698 115.642 70.4965 114.637 77.9551" fill="white"/>
<path d="M53.9326 73.4817C52.8033 66.0337 51.674 58.5857 50.5433 51.1377C50.134 48.435 49.7379 45.5843 50.7246 43.0337C51.7113 40.483 54.6073 38.4523 57.1686 39.411C56.1433 34.2297 61.8753 30.403 66.8699 28.683C75.2379 25.8017 84.2126 24.335 92.9913 25.4697C101.77 26.603 110.341 30.487 116.258 37.0684C118.131 39.1524 119.745 41.519 120.638 44.175C122.354 49.2857 121.262 54.8617 120.154 60.1377C119.275 64.3297 118.395 68.5217 117.515 72.7137C117.315 73.671 117.091 74.6763 116.438 75.4043C115.395 76.563 113.639 76.6497 112.081 76.6537C95.4246 76.6897 78.7686 76.7257 62.1113 76.7617C58.9793 76.7683 54.8913 75.9963 54.478 72.891" fill="white"/>
</svg>
