<svg width="40" height="43" viewBox="0 0 40 43" fill="none" xmlns="http://www.w3.org/2000/svg">
<path d="M30.5251 34.2017L31.8291 32.8357C37.8616 33.0435 37.9544 32.8205 38.2195 32.1663L39.8768 27.9109L40 27.5076L39.8653 27.1546C39.7944 26.9682 39.5755 26.412 35.8088 22.6241V20.6317C40.1549 16.2158 40.0624 15.9897 39.8147 15.3433L38.1645 11.0436C37.9168 10.3988 37.8224 10.1467 31.8333 10.3193L30.5296 8.8983C30.664 6.80513 30.5957 4.70292 30.3253 2.62443L30.1571 2.22257L25.8486 0.236194C25.2141 -0.0694018 24.9909 -0.179416 20.9229 4.49314L19.0945 4.46411C14.9062 -0.251231 14.7077 -0.165665 14.0804 0.101732L10.0746 1.81001C9.44731 2.07741 9.22565 2.17214 9.46904 8.58966L8.17531 9.94956C2.1456 9.74174 2.05288 9.96789 1.79066 10.6188L0.130388 14.8758L0 15.2837L0.136183 15.6382C0.207171 15.8216 0.41724 16.3716 4.19269 20.1641V22.1505C-0.153567 26.5663 -0.0593987 26.7925 0.189786 27.4403L1.83846 31.7447C2.09055 32.4031 2.18037 32.6371 8.16805 32.472L9.47192 33.9007C9.33677 35.9904 9.40328 38.0897 9.6704 40.1653L9.83845 40.5703L14.1746 42.5689C14.8048 42.847 15.0235 42.9463 19.0801 38.2905L20.9084 38.315C25.1025 43.0363 25.3169 42.9446 25.9297 42.6833L29.9269 40.9798C30.5584 40.7154 30.7787 40.6223 30.5251 34.2017ZM13.3459 24.2331C12.8403 22.8397 12.7363 21.3198 13.0467 19.8642C13.3571 18.4086 14.0682 17.0821 15.0908 16.0512C16.1134 15.0203 17.4018 14.3308 18.7945 14.0694C20.1873 13.8079 21.6222 13.9861 22.9192 14.5815C24.2163 15.1769 25.3177 16.1631 26.0853 17.4163C26.8528 18.6695 27.2525 20.1339 27.2339 21.6257C27.2155 23.1176 26.7795 24.5704 25.9809 25.8019C25.1824 27.0334 24.0568 27.9888 22.7454 28.548C20.9561 29.286 18.9624 29.2463 17.2008 28.4378C15.4392 27.629 14.0531 26.1172 13.3459 24.2331Z" fill="#4D4D4F"/>
</svg>
