<svg width="33" height="33" viewBox="0 0 33 33" fill="none" xmlns="http://www.w3.org/2000/svg">
<path d="M22.6683 4.08965C22.6683 2.31365 24.0845 0.889648 25.8508 0.889648C27.6171 0.889648 29.0334 2.31365 29.0334 4.08965C29.0334 5.86565 27.6171 7.28965 25.8508 7.28965C24.0845 7.28965 22.6683 5.86565 22.6683 4.08965ZM29.0334 31.2896V23.2896H30.7997C31.8817 23.2896 32.6455 22.2176 32.3114 21.1776L28.9697 11.0816C28.7568 10.4444 28.3507 9.89022 27.8084 9.49704C27.2661 9.10387 26.6149 8.89146 25.9463 8.88965H25.7553C25.0862 8.88904 24.4338 9.10051 23.891 9.49403C23.3484 9.88755 22.9428 10.4431 22.732 11.0816L21.3635 15.2096C23.082 16.1696 24.2596 17.9776 24.2596 20.0896V32.8896H27.4421C28.3173 32.8896 29.0334 32.1696 29.0334 31.2896ZM17.0989 16.0896C18.4196 16.0896 19.4858 15.0176 19.4858 13.6896C19.4858 12.3616 18.4196 11.2896 17.0989 11.2896C15.7781 11.2896 14.712 12.3616 14.712 13.6896C14.712 15.0176 15.7781 16.0896 17.0989 16.0896ZM5.96004 7.28965C7.72635 7.28965 9.14257 5.86565 9.14257 4.08965C9.14257 2.31365 7.72635 0.889648 5.96004 0.889648C4.19374 0.889648 2.77752 2.31365 2.77752 4.08965C2.77752 5.86565 4.19374 7.28965 5.96004 7.28965ZM9.14257 31.2896V21.6896H9.9382C10.8134 21.6896 11.5295 20.9696 11.5295 20.0896V12.0896C11.5295 10.3296 10.0973 8.88965 8.34694 8.88965H3.57315C1.82276 8.88965 0.390625 10.3296 0.390625 12.0896V20.0896C0.390625 20.9696 1.10669 21.6896 1.98189 21.6896H2.77752V31.2896C2.77752 32.1696 3.49359 32.8896 4.36878 32.8896H7.55131C8.4265 32.8896 9.14257 32.1696 9.14257 31.2896ZM13.1207 20.0896V24.8896C13.1207 25.7696 13.8368 26.4896 14.712 26.4896V31.2896C14.712 32.1696 15.4281 32.8896 16.3033 32.8896H17.8945C18.7697 32.8896 19.4858 32.1696 19.4858 31.2896V26.4896C20.361 26.4896 21.077 25.7696 21.077 24.8896V20.0896C21.077 18.7776 19.995 17.6896 18.6901 17.6896H15.5076C14.2028 17.6896 13.1207 18.7776 13.1207 20.0896Z" fill="#4D4D4F"/>
</svg>
