<svg width="43" height="38" viewBox="0 0 43 38" fill="none" xmlns="http://www.w3.org/2000/svg">
<path d="M23.6667 27.5V29.625C23.6667 31.3156 22.9818 32.9372 21.7628 34.1328C20.5439 35.3283 18.8906 36 17.1667 36H8.5C6.77609 36 5.1228 35.3283 3.90381 34.1328C2.68482 32.9372 2 31.3156 2 29.625V8.375C2 6.68424 2.68482 5.06274 3.90381 3.86719C5.1228 2.67165 6.77609 2 8.5 2H17.1667C18.8906 2 20.5439 2.67165 21.7628 3.86719C22.9818 5.06274 23.6667 6.68424 23.6667 8.375V10.5V27.5ZM32.3333 27.5L41 19L32.3333 27.5ZM41 19L32.3333 10.5L41 19ZM41 19H10.6667H41Z" stroke="#4D4D4F" stroke-width="3" stroke-linecap="round" stroke-linejoin="round"/>
</svg>
