<svg width="44" height="31" viewBox="0 0 44 31" fill="none" xmlns="http://www.w3.org/2000/svg">
<path d="M30.8 15.5C26.5444 15.5 23.1 12.0333 23.1 7.75C23.1 3.46674 26.5444 0 30.8 0C35.0556 0 38.5 3.46674 38.5 7.75C38.5 12.0333 35.0556 15.5 30.8 15.5ZM25.52 17.7143H26.0906C27.5206 18.4062 29.1087 18.8214 30.8 18.8214C32.4913 18.8214 34.0725 18.4062 35.5094 17.7143H36.08C40.4525 17.7143 44 21.2848 44 25.6857V27.6786C44 29.5123 42.5219 31 40.7 31H20.9C19.0781 31 17.6 29.5123 17.6 27.6786V25.6857C17.6 21.2848 21.1475 17.7143 25.52 17.7143ZM11 15.5C7.35625 15.5 4.4 12.5246 4.4 8.85714C4.4 5.18973 7.35625 2.21429 11 2.21429C14.6437 2.21429 17.6 5.18973 17.6 8.85714C17.6 12.5246 14.6437 15.5 11 15.5ZM7.7 17.7143H7.96125C8.91687 18.0464 9.9275 18.2679 11 18.2679C12.0725 18.2679 13.0831 18.0464 14.0387 17.7143H14.3C15.7025 17.7143 16.995 18.1225 18.1294 18.7799C16.4519 20.5998 15.4 23.0147 15.4 25.6857V28.3429C15.4 28.4951 15.4344 28.6404 15.4412 28.7857H3.3C1.47812 28.7857 0 27.298 0 25.4643C0 21.181 3.44437 17.7143 7.7 17.7143Z" fill="#4D4D4F"/>
</svg>
